<svg width="104" height="108" viewBox="0 0 104 108" fill="none" xmlns="http://www.w3.org/2000/svg">
<path d="M60.9159 94.3253L43.3005 63.8831H35.0109L52.8775 94.7806H60.649L55.4209 103.792L36.4867 71.0736H28.1971L49.5805 108H52.9874H57.8701H61.277L74.9987 84.3087H66.7092L60.9159 94.3253Z" fill="#3E91B7"/>
<path d="M21.3362 82.2208L38.8887 51.7471L34.744 44.5722L16.9245 75.5012L20.8181 82.2208L10.3933 82.2051L29.249 49.4549L25.1042 42.28L3.83069 79.2535L7.97548 86.4284L9.67108 89.38L37.0518 89.4114L32.9071 82.2365L21.3362 82.2208Z" fill="#3E91B7"/>
<path d="M17.8038 51.9355L12.0262 41.9032L47.1942 41.8718L51.3233 34.6969L15.6372 34.7283L11.7593 41.4479L6.5626 32.4204L44.3681 32.3576L48.5129 25.1827L5.84039 25.2455L4.14479 28.1971L0 35.372L13.659 59.1103L17.8038 51.9355Z" fill="#3E91B7"/>
<path d="M42.2957 13.6747L59.8954 44.117H68.185L50.3184 13.2194H42.5469L47.775 4.20758L66.7092 36.9106H74.9987L53.6154 0H50.2085H45.3258H41.9189L28.1971 23.6913H36.4867L42.2957 13.6747Z" fill="#3E91B7"/>
<path d="M81.8596 25.7636L64.307 56.2373L68.4518 63.4122L86.2713 32.4989L82.3934 25.7636L92.8025 25.7793L73.9468 58.5451L78.0916 65.72L99.365 28.7466L95.236 21.5717L93.5246 18.6201L66.1439 18.573L70.2887 25.7479L81.8596 25.7636Z" fill="#3E91B7"/>
<path d="M103.196 72.6126L89.5371 48.8899L85.408 56.0648L91.1855 66.0971L56.0176 66.1285L51.8728 73.3034L87.5588 73.272L91.4367 66.5524L96.6334 75.5799L58.8279 75.627L54.6988 82.8018L97.3556 82.7391L99.0669 79.7875L103.196 72.6126Z" fill="#3E91B7"/>
</svg>
