<svg width="46" height="49" viewBox="0 0 46 49" fill="none" xmlns="http://www.w3.org/2000/svg">
<path d="M27.1535 42.0459L19.3014 28.4761H15.6062L23.5703 42.2488H27.0345L24.7041 46.2659L16.2641 31.6814H12.569L22.1007 48.1414H23.6193H25.7958H27.3144L33.431 37.581H29.7359L27.1535 42.0459Z" fill="#3E91B7"/>
<path d="M9.51069 36.6502L17.3348 23.0665L15.4873 19.8683L7.54415 33.655L9.27975 36.6502L4.63286 36.6432L13.0379 22.0447L11.1903 18.8465L1.70755 35.3276L3.55511 38.5258L4.31093 39.8415L16.516 39.8555L14.6685 36.6572L9.51069 36.6502Z" fill="#3E91B7"/>
<path d="M7.93611 23.1504L5.36072 18.6785L21.037 18.6645L22.8775 15.4663L6.97034 15.4803L5.24175 18.4755L2.92531 14.4515L19.7773 14.4235L21.6248 11.2253L2.60338 11.2533L1.84756 12.569L0 15.7672L6.08855 26.3487L7.93611 23.1504Z" fill="#3E91B7"/>
<path d="M18.8535 6.09555L26.6986 19.6653H30.3937L22.4296 5.89259H18.9654L21.2959 1.87555L29.7359 16.4531H33.431L23.8993 0H22.3806H20.2041H18.6855L12.569 10.5605H16.2641L18.8535 6.09555Z" fill="#3E91B7"/>
<path d="M36.4892 11.4842L28.6651 25.068L30.5126 28.2662L38.4558 14.4865L36.7272 11.4842L41.3671 11.4912L32.9621 26.0967L34.8096 29.295L44.2924 12.8139L42.4518 9.61567L41.689 8.29999L29.4839 8.27899L31.3315 11.4772L36.4892 11.4842Z" fill="#3E91B7"/>
<path d="M46 32.3673L39.9115 21.7928L38.0709 24.9911L40.6463 29.463L24.9701 29.477L23.1225 32.6752L39.0297 32.6613L40.7583 29.666L43.0747 33.69L26.2228 33.711L24.3822 36.9092L43.3967 36.8812L44.1595 35.5656L46 32.3673Z" fill="#3E91B7"/>
</svg>
