<svg width="100" height="100" viewBox="0 0 100 100" fill="none" xmlns="http://www.w3.org/2000/svg">
<path d="M59.0293 87.3383L41.9595 59.151H33.9266L51.2398 87.7598H58.7707L53.7045 96.1041L35.3567 65.8089H27.3238L48.045 100H51.3464H56.0778H59.3792L72.676 78.0637H64.6432L59.0293 87.3383Z" fill="#4B4645"/>
<path d="M20.6754 76.1304L37.6843 47.914L33.6679 41.2706L16.4003 69.9085L20.1733 76.1304L10.0714 76.1158L28.3431 45.7916L24.3267 39.1482L3.71205 73.3829L7.72848 80.0263L9.37157 82.7592L35.9043 82.7884L31.8879 76.1449L20.6754 76.1304Z" fill="#4B4645"/>
<path d="M17.2524 48.0884L11.6537 38.7993L45.7325 38.7702L49.7338 32.1268L15.1529 32.1558L11.3951 38.3777L6.35936 30.0189L42.994 29.9607L47.0105 23.3173L5.65952 23.3755L4.01643 26.1084L0 32.7519L13.236 54.7318L17.2524 48.0884Z" fill="#4B4645"/>
<path d="M40.9858 12.6618L58.0404 40.849H66.0732L48.76 12.2402H41.2292L46.2954 3.89591L64.6432 34.1765H72.676L51.9549 0H48.6535H43.922H40.6206L27.3238 21.9364H35.3567L40.9858 12.6618Z" fill="#4B4645"/>
<path d="M79.3244 23.8552L62.3154 52.0715L66.3318 58.7149L83.5994 30.0915L79.8416 23.8552L89.9284 23.8697L71.6566 54.2084L75.6731 60.8518L96.2877 26.6172L92.2865 19.9738L90.6282 17.2408L64.0954 17.1972L68.1118 23.8406L79.3244 23.8552Z" fill="#4B4645"/>
<path d="M100 67.2339L86.7641 45.2684L82.7628 51.9119L88.3615 61.201L54.2827 61.2301L50.2663 67.8735L84.8471 67.8444L88.6049 61.6226L93.6407 69.9814L57.006 70.025L53.0048 76.6684L94.3405 76.6103L95.9988 73.8773L100 67.2339Z" fill="#4B4645"/>
</svg>
